<?xml version="1.0" encoding="UTF-8"?>
<svg version="1.1" xmlns="http://www.w3.org/2000/svg" width="1254" height="1254">
<path d="M0 0 C413.82 0 827.64 0 1254 0 C1254 413.82 1254 827.64 1254 1254 C840.18 1254 426.36 1254 0 1254 C0 840.18 0 426.36 0 0 Z " fill="#427A39" transform="translate(0,0)"/>
<path d="M0 0 C2.3031974 0.98964212 4.60642087 1.97922356 6.90966797 2.96875 C8.08325867 3.47599609 9.25684937 3.98324219 10.46600342 4.50585938 C15.00949868 6.46481794 19.56413379 8.39690199 24.11978149 10.32739258 C28.63626225 12.24148201 33.14971645 14.16265772 37.66333008 16.08349609 C39.93356361 17.04931034 42.20407197 18.01447883 44.47485352 18.97900391 C58.96075694 25.13221613 73.40434583 31.37145904 87.79858398 37.73632812 C90.87184295 39.09500839 93.94838057 40.44363107 97.03833008 41.76391602 C99.80483873 42.94617883 102.52904726 44.19408437 105.25390625 45.46875 C108.85694936 47.12116326 112.43952787 48.56867554 116.19140625 49.84375 C121.79211405 51.81004166 126.99128402 54.41336644 132.25854492 57.1262207 C136.44155966 59.27878824 140.66266737 61.20893926 145.00390625 63.03125 C146.83999344 63.85849808 148.67353424 64.69143225 150.50390625 65.53125 C154.6476049 67.42244761 158.81315251 69.24629933 163.00390625 71.03125 C170.74983665 74.41131232 178.41889913 77.9625425 186.10003662 81.48641968 C198.0049593 86.94466268 209.92040925 92.37875993 221.87890625 97.71875 C223.4419751 98.42064453 223.4419751 98.42064453 225.03662109 99.13671875 C231.28515861 101.91519269 237.58744854 104.44984642 244.00048828 106.82519531 C253.25488017 110.5413956 260.48925027 115.95383274 267.55273438 122.85571289 C271.52339688 126.73012835 274.74328376 129.69002396 280.31640625 130.53125 C287.91802965 129.5005214 293.0444855 124.33112848 298.4375 119.19140625 C306.93116176 112.04225107 316.57345203 107.80929581 326.62890625 103.34375 C328.1188166 102.67455573 329.60840244 102.00463847 331.09765625 101.33398438 C337.37744024 98.51210143 343.67366834 95.73807555 350.00390625 93.03125 C351.83999344 92.20400192 353.67353424 91.37106775 355.50390625 90.53125 C365.45854136 85.99410339 365.45854136 85.99410339 370.08984375 84.2421875 C375.54271579 82.1588643 380.73786875 79.72599156 385.94140625 77.09375 C393.88032096 73.0780609 401.75989688 69.10848096 410.19140625 66.21875 C415.66600257 64.29250315 420.71478892 61.74356998 425.86962891 59.10546875 C432.45273984 55.75372573 439.18273173 52.86852382 446.00390625 50.03125 C450.19631104 48.25028331 454.36394077 46.43076357 458.50390625 44.53125 C461.93219796 42.9582691 465.37649799 41.43543221 468.84619141 39.95605469 C471.51648849 38.81155533 474.18000726 37.65186111 476.84375 36.4921875 C496.48161186 27.94970352 516.17061204 19.53025899 535.89599609 11.19189453 C539.31701144 9.74567219 542.73649872 8.29592201 546.15478516 6.84326172 C550.29740424 5.08323954 554.4433062 3.33118041 558.59173584 1.5848999 C560.13812405 0.93259458 561.6834456 0.2777538 563.2276001 -0.37982178 C578.01630407 -6.67284401 594.04354332 -11.9111586 610.00390625 -5.96875 C624.41680494 0.26841084 636.60859332 8.31911065 643.421875 23.109375 C644.65098535 26.42841665 645.80638351 29.66109227 646.3125 33.171875 C647.33420388 35.91950803 649.00493352 36.45163057 651.56640625 37.78125 C662.43514514 43.99860277 668.93884157 53.24256244 673.00390625 65.03125 C673.84379763 69.92367413 674.13129822 74.62462298 674.13812733 79.58456516 C674.14047956 80.31613678 674.14283179 81.0477084 674.1452553 81.80144885 C674.15190191 84.24806457 674.15148839 86.69462665 674.15107727 89.14125061 C674.15437859 90.91510407 674.15810472 92.68895679 674.16221875 94.46280855 C674.17221616 99.33404396 674.17595189 104.20526705 674.17860806 109.07651126 C674.18251774 114.33165246 674.19209552 119.58678396 674.20082092 124.84191895 C674.22056505 137.53031509 674.23064827 150.218712 674.23954871 162.90711966 C674.24393438 168.88497908 674.24930041 174.86283761 674.25453758 180.84069633 C674.27154668 200.71615064 674.28604092 220.5916044 674.29328632 240.46706486 C674.29519615 245.62249312 674.2971165 250.77792137 674.29907227 255.93334961 C674.29955601 257.21467372 674.30003975 258.49599783 674.30053815 259.81614994 C674.30883879 280.57352431 674.33417773 301.33084106 674.36665294 322.08819026 C674.39973473 343.40729458 674.41773604 364.72636962 674.42093056 386.04549974 C674.42309445 398.01221729 674.43182569 409.97885078 674.45739174 421.94554329 C674.47911386 432.13639122 674.48714161 442.32713466 674.47742496 452.51800311 C674.47288489 457.71467666 674.47474966 462.91113466 674.4941864 468.10777855 C674.51185129 472.87195995 674.51079336 477.63576907 674.49528911 482.39995461 C674.49291811 484.11667675 674.49721 485.83342489 674.50911776 487.55010737 C674.62083391 504.72996245 671.4410544 519.92629047 659.35546875 532.89453125 C651.41901432 540.10589433 642.12982053 543.20465789 632.00390625 546.03125 C628.99695961 546.96797818 626.00156401 547.94027327 623.00390625 548.90625 C616.37189832 551.02224255 609.71010144 552.97770622 603.00390625 554.84375 C593.21317675 557.57385726 583.59430824 560.76429589 573.9765625 564.0480957 C572.88214844 564.42023193 571.78773438 564.79236816 570.66015625 565.17578125 C569.68884766 565.50940674 568.71753906 565.84303223 567.71679688 566.18676758 C565.15606713 566.98388459 562.64189737 567.55928002 560.00390625 568.03125 C560.61878906 568.28519531 561.23367188 568.53914062 561.8671875 568.80078125 C562.67542969 569.14496094 563.48367188 569.48914063 564.31640625 569.84375 C565.51716797 570.34841797 565.51716797 570.34841797 566.7421875 570.86328125 C569.0945086 572.07803774 570.44414704 572.89557969 572.00390625 575.03125 C572.89511813 579.24991646 573.1347713 583.28371296 573.15107727 587.58766174 C573.16181023 589.54076515 573.16181023 589.54076515 573.17276001 591.5333252 C573.17559981 592.96435523 573.17831159 594.39538552 573.1809082 595.82641602 C573.18717924 597.34313612 573.1938266 598.85985471 573.20082092 600.37657166 C573.22179141 605.34608912 573.23221823 610.31560663 573.2421875 615.28515625 C573.24623798 617.0016729 573.25035499 618.7181894 573.25453758 620.43470573 C573.27357557 628.50301554 573.28780829 636.57131628 573.29614955 644.63964421 C573.30591048 653.92569499 573.33220588 663.21150669 573.37265044 672.4974733 C573.40290352 679.69264434 573.41762719 686.88774721 573.42093056 694.08298057 C573.42327096 698.37195752 573.43209848 702.66067866 573.45739174 706.94958687 C573.48083851 710.99050986 573.48483984 715.0310116 573.47463036 719.07198524 C573.47413886 720.54525919 573.48034376 722.01855507 573.4941864 723.49176407 C573.63138546 738.97453112 570.0179931 752.37127262 559.62890625 764.15625 C549.14946139 774.12796982 535.93752131 777.50698019 521.87109375 777.234375 C511.74595884 776.70254973 503.80065042 773.19853143 495.09741211 768.29003906 C491.37677727 766.21604905 487.59393065 764.28497294 483.7734375 762.40234375 C474.12132539 757.60941508 464.53073286 752.69830699 454.94140625 747.78125 C454.03639374 747.31737885 453.13138123 746.85350769 452.19894409 746.37557983 C435.84731205 737.99300579 419.525658 729.55995815 403.296875 720.94140625 C400.4493267 719.42948407 397.60166156 717.91778223 394.75390625 716.40625 C393.68172852 715.83700302 393.68172852 715.83700302 392.58789062 715.2562561 C379.80767206 708.47483875 366.95878081 701.83312552 354.08398438 695.23339844 C345.18268951 690.67017811 336.30594234 686.06575308 327.46484375 681.38671875 C321.14152273 678.0408559 314.79586227 674.73716962 308.44238281 671.44897461 C303.92736996 669.10699326 299.44050463 666.73613191 295.01171875 664.234375 C293.86243896 663.59447632 293.86243896 663.59447632 292.68994141 662.94165039 C291.28239701 662.15424924 289.88280114 661.35237794 288.49365234 660.53295898 C283.87878475 657.97119048 281.071224 657.61374041 276.00390625 659.03125 C273.14908098 660.25006909 270.46347672 661.70779017 267.75390625 663.21875 C266.06449226 664.13408748 264.37434421 665.04807102 262.68359375 665.9609375 C261.77319336 666.45561523 260.86279297 666.95029297 259.92480469 667.45996094 C254.60986482 670.31911783 249.24114906 673.07465699 243.87890625 675.84375 C241.56238566 677.04405019 239.24598009 678.24457238 236.9296875 679.4453125 C232.42879831 681.77677184 227.9259337 684.10435826 223.421875 686.4296875 C213.69828215 691.45787973 204.01242071 696.52991241 194.44140625 701.84375 C188.26105031 705.27452511 182.04767471 708.57531326 175.70605469 711.69702148 C168.65486962 715.17679342 161.67367167 718.79087552 154.69140625 722.40625 C154.05361237 722.73639099 153.41581848 723.06653198 152.75869751 723.40667725 C145.40925113 727.2124724 138.07019719 731.03701733 130.75390625 734.90625 C120.78441807 740.17819718 110.75155384 745.32687599 100.72167969 750.48266602 C93.87005129 754.00540221 87.02260398 757.53543258 80.19140625 761.09765625 C79.26968628 761.57780685 79.26968628 761.57780685 78.3293457 762.06765747 C75.45748891 763.56377708 72.58693314 765.06227663 69.71875 766.56542969 C54.44825131 774.52404294 39.80380592 780.31973673 22.33203125 776.15625 C10.76349278 772.02850857 0.54102703 764.10364001 -5.53515625 753.29296875 C-10.56588598 742.65782958 -11.29891176 733.11510084 -11.30249023 721.53076172 C-11.31012062 719.9629782 -11.31854961 718.3951984 -11.32771301 716.8274231 C-11.34956748 712.58795239 -11.35844368 708.34855376 -11.36353946 704.10903311 C-11.36719119 701.45826083 -11.3734352 698.80750722 -11.38054085 696.1567421 C-11.40499561 686.90380275 -11.41808041 677.65091923 -11.42163086 668.39794922 C-11.42527182 659.77948633 -11.45521732 651.16137828 -11.49703544 642.54302394 C-11.53172332 635.13390061 -11.54717897 627.72489511 -11.54787689 620.31569111 C-11.54866967 615.8944638 -11.55740981 611.47359911 -11.58587456 607.0524559 C-11.61203249 602.89735745 -11.61427359 598.74292315 -11.59821892 594.58778 C-11.59640309 593.06479952 -11.60310736 591.54178099 -11.61903763 590.01888275 C-11.74614138 577.07780165 -11.74614138 577.07780165 -8.57582092 573.1645813 C-5.03760485 570.23861797 -3.33541924 569.18578756 1.25390625 568.65625 C5.72075203 569.10293458 9.56160054 570.04542396 13.00390625 573.03125 C17.08392647 579.87314691 16.40200247 587.15029695 16.34106445 594.89575195 C16.34025732 596.40763335 16.340854 597.91951605 16.34274292 599.43139648 C16.3443 602.6780286 16.33694981 605.92447425 16.32290077 609.17107582 C16.30170122 614.3118058 16.30654602 619.45231018 16.31596375 624.59306335 C16.33879754 639.20817701 16.32695421 653.82315498 16.28881836 668.43823242 C16.26796728 676.51723352 16.26872971 684.59595327 16.29235333 692.67494935 C16.30598398 697.77808382 16.29295689 702.88021745 16.25975573 707.98325121 C16.24534369 711.16765956 16.25610966 714.35162618 16.27373886 717.53600311 C16.27689792 719.00408849 16.26993489 720.47223897 16.25167274 721.94021416 C16.14413247 731.13434913 17.0189348 737.79438974 23.00390625 745.03125 C27.4463591 748.71523529 32.77674217 748.78678879 38.37890625 748.60546875 C44.65336961 747.6115613 49.78309542 744.57978378 55.25830078 741.53027344 C58.5605973 739.72731233 61.90143668 738.0038903 65.25 736.2890625 C65.89997955 735.95608658 66.54995911 735.62311066 67.21963501 735.28004456 C68.56670047 734.59012946 69.91381838 733.90031675 71.26098633 733.21060181 C81.22785523 728.09797926 91.16217626 722.92223608 101.06567383 717.68798828 C107.52980961 714.27289237 114.01550592 710.89998386 120.50390625 707.53125 C127.76536839 703.76098025 135.01941042 699.97800663 142.25390625 696.15625 C150.94775064 691.56529007 159.68210936 687.05353183 168.41784668 682.54302979 C176.52067013 678.35872532 184.60883475 674.14884866 192.67041016 669.88549805 C197.48556694 667.34402001 202.31480232 664.8306109 207.15234375 662.33203125 C207.78686462 662.00427704 208.4213855 661.67652283 209.07513428 661.33883667 C212.22161665 659.71417946 215.36902301 658.09133951 218.51757812 656.47070312 C226.39397739 652.40868806 234.21564691 648.25913907 242.00390625 644.03125 C235.02849151 641.34905736 227.96766366 638.95798479 220.87890625 636.59375 C219.74453125 636.21154297 218.61015625 635.82933594 217.44140625 635.43554688 C210.53340809 633.12896472 203.59490805 631.03629069 196.58447266 629.06518555 C190.26210982 627.23952029 184.01089402 625.1920673 177.75390625 623.15625 C176.38359367 622.71257727 175.0132318 622.26905674 173.64282227 621.82568359 C165.67601534 619.24445448 157.72848677 616.6093979 149.79370117 613.93139648 C145.74503971 612.57637172 141.68248471 611.35092317 137.56640625 610.21875 C130.60305833 608.28807697 123.78568307 605.97036214 116.94140625 603.65625 C108.86152169 600.92928896 100.78492939 598.30825391 92.56640625 596.03125 C84.75171479 593.86200202 77.02924483 591.47607636 69.31640625 588.96875 C56.87000902 584.92351599 44.38268649 581.02021894 31.87890625 577.15625 C30.50770126 576.73217361 30.50770126 576.73217361 29.10879517 576.29953003 C15.05276165 571.95359249 0.97520142 567.71153835 -13.16210938 563.63671875 C-14.17080078 563.34410156 -15.17949219 563.05148437 -16.21875 562.75 C-17.11343994 562.49154297 -18.00812988 562.23308594 -18.92993164 561.96679688 C-21.35510899 561.22682716 -23.75262788 560.44701066 -26.15429688 559.63623047 C-31.48154476 557.84824849 -36.85847776 556.241099 -42.2421875 554.6328125 C-44.40053422 553.98224704 -46.55873289 553.33119023 -48.71679688 552.6796875 C-52.07688541 551.66604321 -55.43765222 550.65504008 -58.80102539 549.65234375 C-62.07566813 548.67505296 -65.34662832 547.68617095 -68.6171875 546.6953125 C-70.10514076 546.25597885 -70.10514076 546.25597885 -71.62315369 545.80776978 C-84.96482676 541.73672497 -97.33880446 535.41007763 -104.5 522.93359375 C-108.78828018 514.8025329 -111.15145569 507.8860098 -111.12752151 498.61915302 C-111.12957415 497.87856047 -111.13162678 497.13796791 -111.13374162 496.37493315 C-111.13940998 493.885625 -111.13795457 491.39637219 -111.13653564 488.90705872 C-111.13911937 487.10733196 -111.14213255 485.30760578 -111.14553905 483.50788039 C-111.15361138 478.55599265 -111.15539875 473.6041194 -111.15613651 468.65222585 C-111.15798666 463.31396367 -111.16553379 457.97570901 -111.17227173 452.63745117 C-111.18585714 440.96182936 -111.19188007 429.28621099 -111.19628239 417.61058259 C-111.1990444 410.32129166 -111.20328168 403.03200206 -111.20778656 395.74271202 C-111.2199794 375.56365575 -111.23027875 355.38460054 -111.23366165 335.20554066 C-111.23388122 333.91388577 -111.23410078 332.62223087 -111.234327 331.29143493 C-111.23454528 329.99667775 -111.23476356 328.70192057 -111.23498845 327.36792833 C-111.23543192 324.74422761 -111.23587848 322.12052689 -111.23632812 319.49682617 C-111.23666027 317.54465411 -111.23666027 317.54465411 -111.23699912 315.55304422 C-111.24094747 294.46305922 -111.25840256 273.37310877 -111.28168765 252.28313712 C-111.30539715 230.63415159 -111.31786332 208.9851834 -111.31902957 187.33618468 C-111.31994654 175.1795515 -111.32570455 163.02296333 -111.34384918 150.86634254 C-111.35924472 140.51504482 -111.36437383 130.16380602 -111.35611108 119.81249902 C-111.35220269 114.53131111 -111.35314351 109.25024187 -111.36716843 103.96906853 C-111.37989572 99.13228663 -111.37872004 94.29571273 -111.36657771 89.45893117 C-111.3646187 87.7112676 -111.36770858 85.96358936 -111.37642208 84.21594641 C-111.45073566 68.30054199 -109.14293659 55.90749169 -97.62109375 44.21875 C-94.67440257 41.28487695 -91.89987196 38.73203193 -88.05859375 37.03125 C-83.91742377 34.32681246 -83.45654888 31.57039959 -82.01171875 26.97265625 C-77.43696752 13.72347289 -67.35788285 4.02244362 -55.2265625 -2.4453125 C-36.01770807 -11.63332399 -18.83085144 -8.21363534 0 0 Z " fill="#FCFCFC" transform="translate(345.99609375,241.96875)"/>
<path d="M0 0 C-0.64985115 0.85329706 -1.2997023 1.70659412 -1.96924591 2.58574867 C-4.22085013 6.37130928 -4.49780958 8.27887213 -4.49206543 12.62802124 C-4.5001976 13.94573013 -4.50832977 15.26343903 -4.51670837 16.62107849 C-4.50561737 18.06949115 -4.49417686 19.51790117 -4.48242188 20.96630859 C-4.48460919 22.50099535 -4.48860814 24.03568043 -4.49427795 25.57035828 C-4.50282938 28.86889219 -4.4990784 32.16710038 -4.4858551 35.46561813 C-4.46548496 40.68557086 -4.47551054 45.90519669 -4.4901123 51.12515259 C-4.51912411 63.1499667 -4.50842458 75.17468423 -4.49741364 87.1995163 C-4.48773155 98.21745764 -4.4864962 109.2352279 -4.51729441 120.25314009 C-4.5306434 125.4377569 -4.52474297 130.6218815 -4.50392914 135.80646873 C-4.49492061 139.03767125 -4.50243756 142.26868555 -4.51434135 145.49987221 C-4.51646565 146.99297668 -4.51178899 148.48610951 -4.4996357 149.97916603 C-4.43059827 158.97079788 -4.5921163 166.05726848 -10.8671875 173.09375 C-16.88205165 177.30649532 -22.60548094 178.27119767 -29.88684082 177.43762207 C-37.49149841 175.86274497 -44.45406136 171.3218155 -51.1875 167.625 C-52.84038428 166.74344007 -54.49467829 165.86451809 -56.15039062 164.98828125 C-59.45989801 163.23134454 -62.76045298 161.45915659 -66.05419922 159.67285156 C-78.45081395 152.95606567 -90.97485652 146.4730462 -103.5 140 C-112.0186085 135.59032525 -120.52515345 131.15966287 -129.00878906 126.68310547 C-135.08046918 123.48027464 -141.16318001 120.29895841 -147.25 117.125 C-148.21164062 116.62355469 -149.17328125 116.12210938 -150.1640625 115.60546875 C-153.10923845 114.07005036 -156.05458591 112.53496151 -159 111 C-162.91689244 108.95876609 -166.83360213 106.91718267 -170.75 104.875 C-172.19463623 104.12174438 -172.19463623 104.12174438 -173.66845703 103.35327148 C-180.2355718 99.92673218 -186.79297641 96.48227328 -193.33862305 93.01489258 C-197.72892789 90.69669712 -202.13611078 88.4148121 -206.56140137 86.16429138 C-209.23159264 84.80612269 -211.89902452 83.4425725 -214.56658936 82.07925415 C-215.8905299 81.40481412 -217.21592022 80.73321206 -218.54278564 80.06454468 C-220.40844797 79.12418571 -222.26902321 78.17438253 -224.12890625 77.22265625 C-225.75421265 76.39906616 -225.75421265 76.39906616 -227.41235352 75.55883789 C-230 74 -230 74 -232 71 C-191.59411533 57.46020189 -191.59411533 57.46020189 -174.10498047 52.11523438 C-166.04648301 49.64767695 -158.01884065 47.09328953 -150 44.5 C-141.02065611 41.59608415 -132.02464548 38.7598822 -123 36 C-113.03244337 32.92042766 -103.08901579 29.76505002 -93.15258789 26.58666992 C-88.44317491 25.08323841 -83.72735458 23.60406408 -79.00097656 22.15478516 C-72.14925705 20.0491165 -65.30662063 17.91505309 -58.46484375 15.77734375 C-55.26574854 14.77996632 -52.06654969 13.78292321 -48.86725521 12.78618526 C-45.56812092 11.75814458 -42.26937812 10.72887937 -38.97143555 9.69702148 C-35.11622893 8.4908973 -31.25932509 7.2902806 -27.40234375 6.08984375 C-25.65340065 5.54129982 -25.65340065 5.54129982 -23.86912537 4.98167419 C-2.99759223 -1.49879612 -2.99759223 -1.49879612 0 0 Z " fill="#437A3B" transform="translate(897,814)"/>
<path d="M0 0 C1.47621872 2.95243745 1.13211509 5.93735977 1.1174612 9.17347908 C1.11829318 10.30033489 1.11829318 10.30033489 1.11914197 11.44995546 C1.11978908 13.99352806 1.11323987 16.53703309 1.10679626 19.08059692 C1.10580112 20.91215747 1.10525068 22.7437183 1.10510927 24.57527912 C1.10345669 29.62902705 1.09557166 34.68274949 1.08674753 39.7364893 C1.07834554 45.17905478 1.07572282 50.62162315 1.07249451 56.06419373 C1.06618485 65.50250837 1.05643712 74.94081444 1.04459953 84.37912369 C1.02765314 98.03418701 1.01807869 111.68924818 1.0107208 125.34431969 C0.99876297 147.50819478 0.98382613 169.67206673 0.96557617 191.8359375 C0.96475957 192.83132723 0.96475957 192.83132723 0.96392646 193.84682584 C0.95120529 209.3252741 0.9371985 224.80372054 0.92095947 240.28216553 C0.91991369 241.28030626 0.91991369 241.28030626 0.91884678 242.29861145 C0.91532926 245.65385301 0.91180243 249.00909456 0.9082749 252.36433612 C0.90722972 253.35897794 0.90722972 253.35897794 0.90616344 254.37371354 C0.90475668 255.71210517 0.90334841 257.0504968 0.90193863 258.38888843 C0.87802903 281.12891232 0.86175387 303.86893304 0.85249335 326.60896766 C0.84663568 340.23027753 0.83424936 353.85155094 0.81352056 367.47284643 C0.79982118 376.80742271 0.79332004 386.14198623 0.79251044 395.47657247 C0.79180577 400.8648092 0.78779428 406.25299153 0.7750473 411.64121437 C0.76344005 416.57357182 0.76104675 421.50584455 0.76598949 426.43821238 C0.76614084 428.22294308 0.76289421 430.00767796 0.75591242 431.79239501 C0.74691046 434.21885906 0.75028603 436.64500874 0.75669765 439.07147408 C0.74838784 440.10999295 0.74838784 440.10999295 0.73991016 441.16949201 C0.81788148 453.22543879 6.39108337 466.48050222 14.84765625 475.140625 C25.02320657 483.93111856 35.50688998 487.84812165 48.38671875 491.39453125 C53.19400359 492.71911971 57.83025775 494.35095425 62.50073242 496.09155273 C65.73058547 497.26555715 69.00177849 498.20595818 72.3125 499.125 C80.76295694 501.53927298 89.09984267 504.28933067 97.4375 507.0625 C98.08320953 507.27610168 98.72891907 507.48970337 99.39419556 507.70977783 C106.28014224 509.99047494 113.0743211 512.37371099 119.78540039 515.12670898 C123.13356592 516.44700312 126.54980037 517.48317287 130 518.5 C134.31559043 519.77187116 138.50922581 521.17199835 142.67602539 522.87597656 C147.51167863 524.82446541 152.38823299 526.60685618 157.30859375 528.328125 C159.10259987 528.96052088 160.89654237 529.59309726 162.69042969 530.22583008 C163.62512085 530.55483307 164.55981201 530.88383606 165.52282715 531.22280884 C200.84575163 543.67134001 235.85582494 556.87530863 270.75450134 570.46368408 C282.99785309 575.23062185 295.26697793 579.92158103 307.55859375 584.5625 C314.54926048 587.20267799 321.52580789 589.87914918 328.5 592.5625 C329.58788818 592.98088135 330.67577637 593.3992627 331.79663086 593.83032227 C336.20794311 595.52931898 340.61374047 597.23713672 345 599 C341.32993682 603.50416844 336.25091904 605.76790201 331 608 C330.34 608 329.68 608 329 608 C329 608.66 329 609.32 329 610 C328.34 609.67 327.68 609.34 327 609 C320.03558083 606.29161477 312.96253768 603.92632799 305.875 601.5625 C304.740625 601.18029297 303.60625 600.79808594 302.4375 600.40429688 C295.52950184 598.09771472 288.5910018 596.00504069 281.58056641 594.03393555 C275.25820357 592.20827029 269.00698777 590.1608173 262.75 588.125 C261.37968742 587.68132727 260.00932555 587.23780674 258.63891602 586.79443359 C250.67210909 584.21320448 242.72458052 581.5781479 234.78979492 578.90014648 C230.74113346 577.54512172 226.67857846 576.31967317 222.5625 575.1875 C215.59915208 573.25682697 208.78177682 570.93911214 201.9375 568.625 C193.85761544 565.89803896 185.78102314 563.27700391 177.5625 561 C169.74780854 558.83075202 162.02533858 556.44482636 154.3125 553.9375 C141.86610277 549.89226599 129.37878024 545.98896894 116.875 542.125 C115.50379501 541.70092361 115.50379501 541.70092361 114.10488892 541.26828003 C100.0488554 536.92234249 85.97129517 532.68028835 71.83398438 528.60546875 C70.82529297 528.31285156 69.81660156 528.02023437 68.77734375 527.71875 C67.88265381 527.46029297 66.98796387 527.20183594 66.06616211 526.93554688 C63.64098476 526.19557716 61.24346587 525.41576066 58.84179688 524.60498047 C53.51454899 522.81699849 48.13761599 521.209849 42.75390625 519.6015625 C40.59555953 518.95099704 38.43736086 518.29994023 36.27929688 517.6484375 C32.91920834 516.63479321 29.55844153 515.62379008 26.19506836 514.62109375 C22.92042562 513.64380296 19.64946543 512.65492095 16.37890625 511.6640625 C15.38693741 511.3711734 14.39496857 511.0782843 13.37294006 510.77651978 C0.03126699 506.70547497 -12.34271071 500.37882763 -19.50390625 487.90234375 C-23.79218643 479.7712829 -26.15536194 472.8547598 -26.13142776 463.58790302 C-26.1334804 462.84731047 -26.13553303 462.10671791 -26.13764787 461.34368315 C-26.14331623 458.854375 -26.14186082 456.36512219 -26.14044189 453.87580872 C-26.14302562 452.07608196 -26.1460388 450.27635578 -26.1494453 448.47663039 C-26.15751763 443.52474265 -26.159305 438.5728694 -26.16004276 433.62097585 C-26.16189291 428.28271367 -26.16944004 422.94445901 -26.17617798 417.60620117 C-26.18976339 405.93057936 -26.19578632 394.25496099 -26.20018864 382.57933259 C-26.20295065 375.29004166 -26.20718793 368.00075206 -26.21169281 360.71146202 C-26.22388565 340.53240575 -26.234185 320.35335054 -26.2375679 300.17429066 C-26.23778747 298.88263577 -26.23800703 297.59098087 -26.23823325 296.26018493 C-26.23845153 294.96542775 -26.23866981 293.67067057 -26.2388947 292.33667833 C-26.23933817 289.71297761 -26.23978473 287.08927689 -26.24023438 284.46557617 C-26.24056652 282.51340411 -26.24056652 282.51340411 -26.24090537 280.52179422 C-26.24485372 259.43180922 -26.26230881 238.34185877 -26.2855939 217.25188712 C-26.3093034 195.60290159 -26.32176957 173.9539334 -26.32293582 152.30493468 C-26.32385279 140.1483015 -26.3296108 127.99171333 -26.34775543 115.83509254 C-26.36315097 105.48379482 -26.36828008 95.13255602 -26.36001733 84.78124902 C-26.35610894 79.50006111 -26.35704976 74.21899187 -26.37107468 68.93781853 C-26.38380197 64.10103663 -26.38262629 59.26446273 -26.37048396 54.42768117 C-26.36852495 52.6800176 -26.37161483 50.93233936 -26.38032833 49.18469641 C-26.45461142 33.27582383 -24.15162561 20.86760672 -12.625 9.1875 C-8.74567465 5.36628944 -4.94910651 2.30958304 0 0 Z " fill="#CFDCCC" transform="translate(261,277)"/>
<path d="M0 0 C10.49620121 3.27482199 17.57506397 11.66125217 23 21 C26.53687867 28.2303719 27.12327475 35.6030567 27.13422108 43.55331516 C27.13657331 44.28488678 27.13892554 45.0164584 27.14134905 45.77019885 C27.14799566 48.21681457 27.14758214 50.66337665 27.14717102 53.11000061 C27.15047234 54.88385407 27.15419847 56.65770679 27.1583125 58.43155855 C27.16830991 63.30279396 27.17204564 68.17401705 27.17470181 73.04526126 C27.17861149 78.30040246 27.18818927 83.55553396 27.19691467 88.81066895 C27.2166588 101.49906509 27.22674202 114.187462 27.23564246 126.87586966 C27.24002813 132.85372908 27.24539416 138.83158761 27.25063133 144.80944633 C27.26764043 164.68490064 27.28213467 184.5603544 27.28938007 204.43581486 C27.2912899 209.59124312 27.29321025 214.74667137 27.29516602 219.90209961 C27.29564976 221.18342372 27.2961335 222.46474783 27.2966319 223.78489994 C27.30493254 244.54227431 27.33027148 265.29959106 27.36274669 286.05694026 C27.39582848 307.37604458 27.41382979 328.69511962 27.41702431 350.01424974 C27.4191882 361.98096729 27.42791944 373.94760078 27.45348549 385.91429329 C27.47520761 396.10514122 27.48323536 406.29588466 27.47351871 416.48675311 C27.46897864 421.68342666 27.47084341 426.87988466 27.49028015 432.07652855 C27.50794504 436.84070995 27.50688711 441.60451907 27.49138286 446.36870461 C27.48901186 448.08542675 27.49330375 449.80217489 27.50521151 451.51885737 C27.61692766 468.69871245 24.43714815 483.89504047 12.3515625 496.86328125 C4.41510807 504.07464433 -4.87408572 507.17340789 -15 510 C-18.00694664 510.93672818 -21.00234224 511.90902327 -24 512.875 C-30.63199423 514.99098818 -37.29371898 516.94678976 -44 518.8125 C-53.73934763 521.52363374 -63.29997024 524.70799706 -72.8515625 528.0168457 C-78.25015493 529.86341697 -83.30410244 531.49935194 -89 532 C-89 532.66 -89 533.32 -89 534 C-90.24813477 534.26538574 -91.49626953 534.53077148 -92.78222656 534.80419922 C-98.40450483 536.05607637 -103.94063501 537.57339944 -109.484375 539.1328125 C-111.11521027 539.59084763 -111.11521027 539.59084763 -112.7789917 540.05813599 C-124.67636096 543.43081483 -136.46400529 547.13514992 -148.25 550.875 C-151.62022303 551.93969755 -154.99085298 553.00310013 -158.36149597 554.06646729 C-160.56185374 554.76076839 -162.76206207 555.45554329 -164.96211243 556.15081787 C-173.3595998 558.80359712 -181.77024726 561.41070839 -190.1875 564 C-199.75773236 566.94989966 -209.26442709 570.06054568 -218.75268555 573.26367188 C-224.96414286 575.35148608 -231.19846891 577.27496679 -237.5 579.06958008 C-243.64608457 580.84288382 -249.69222221 582.88524787 -255.75 584.9375 C-263.01937774 587.39516919 -270.28933624 589.7130971 -277.6875 591.75 C-287.26092556 594.40316788 -296.72471406 597.38632938 -306.18130493 600.42541504 C-307.89088386 600.9742124 -309.601314 601.52036527 -311.31259155 602.06384277 C-313.72660785 602.83164674 -316.13710957 603.60959695 -318.546875 604.390625 C-319.65313988 604.74030334 -319.65313988 604.74030334 -320.78175354 605.0970459 C-322.54101615 605.67403869 -324.27405707 606.32989059 -326 607 C-326.33 607.66 -326.66 608.32 -327 609 C-327.66 609 -328.32 609 -329 609 C-329 608.34 -329 607.68 -329 607 C-329.763125 606.79375 -330.52625 606.5875 -331.3125 606.375 C-336.49898594 604.44105609 -341.19033084 601.7214854 -346 599 C-343.47919887 596.47919887 -341.31058112 595.92582263 -337.93359375 594.7734375 C-336.65302077 594.32912967 -335.37292941 593.88343193 -334.09326172 593.43652344 C-333.42091492 593.20235718 -332.74856812 592.96819092 -332.05584717 592.72692871 C-328.65587871 591.52473104 -325.28297858 590.2525896 -321.91015625 588.9765625 C-321.20779846 588.7111264 -320.50544067 588.44569031 -319.78179932 588.17221069 C-317.54155174 587.32440469 -315.30200065 586.47477686 -313.0625 585.625 C-311.4409213 585.01089615 -309.81933919 584.39680132 -308.19775391 583.78271484 C-297.54198582 579.74338812 -286.90513143 575.65634186 -276.27450562 571.5513916 C-257.14951623 564.16769163 -237.95499386 556.98126105 -218.72904968 549.86495972 C-213.04843611 547.76173703 -207.37228848 545.6469167 -201.69921875 543.5234375 C-175.19437306 533.61008852 -148.51958428 524.21452981 -121.765625 514.99609375 C-118.29052088 513.79705799 -114.8207681 512.58570029 -111.359375 511.34765625 C-100.66323342 507.52969383 -89.88597269 503.98395711 -79.08291626 500.48260498 C-76.44441827 499.6272428 -73.80650112 498.77010982 -71.16870117 497.91259766 C-56.83579956 493.25649586 -56.83579956 493.25649586 -49.72166443 491.01455688 C-46.70694286 490.06178987 -43.69789615 489.0913318 -40.6875 488.125 C-39.647146 487.8048291 -38.60679199 487.4846582 -37.53491211 487.15478516 C-23.44963325 482.59016522 -12.67392238 474.31546847 -5.625 461.1875 C0.37125941 449.31771164 0.43000638 436.60079555 0.36076355 423.65666199 C0.36207386 421.82227915 0.36470442 419.98789686 0.36853105 418.15351754 C0.37520368 413.14332051 0.36328795 408.13331777 0.34819686 403.12314546 C0.33519403 397.70887242 0.33962896 392.29460959 0.34190369 386.88032532 C0.34347374 377.50982778 0.33409256 368.13939309 0.31719017 358.76891136 C0.29276839 345.22091806 0.28499164 331.67295503 0.2812262 318.1249421 C0.2746667 296.14211541 0.25471915 274.1593222 0.22631836 252.17651367 C0.1987648 230.82723036 0.17753756 209.4779592 0.16479492 188.12866211 C0.16400675 186.81182547 0.16321858 185.49498883 0.16240653 184.13824805 C0.1584913 177.53180686 0.15470021 170.9253656 0.15097082 164.31892431 C0.11989054 109.54592643 0.0670684 54.77296482 0 0 Z " fill="#CEDBCB" transform="translate(993,278)"/>
<path d="M0 0 C4 2 4 2 6.375 3.5 C13.56447704 7.60827259 21.05583016 8.28510432 29.05078125 6.20703125 C33.5115029 4.66498045 36.71330432 3.4138595 40 0 C40.66 0 41.32 0 42 0 C42 160.05 42 320.1 42 485 C27.26074499 492.36962751 27.26074499 492.36962751 19.9375 492 C18.72964844 491.95875 17.52179687 491.9175 16.27734375 491.875 C12 491 12 491 0 485 C0 324.95 0 164.9 0 0 Z " fill="#CCD8C8" transform="translate(606,381)"/>
<path d="M0 0 C0.33 0 0.66 0 1 0 C1.07927734 0.57105469 1.15855469 1.14210938 1.24023438 1.73046875 C6.16737183 35.97543515 19.30896552 69.52040915 42 96 C42.97315747 97.15713074 43.94577441 98.31471619 44.91796875 99.47265625 C75.572392 135.80969061 117.24421442 157.72030174 164 165 C164 165.33 164 165.66 164 166 C109.88 166 55.76 166 0 166 C0 111.22 0 56.44 0 0 Z " fill="#FCFDFC" transform="translate(0,1088)"/>
<path d="M0 0 C54.12 0 108.24 0 164 0 C164 0.33 164 0.66 164 1 C163.35264893 1.11480713 162.70529785 1.22961426 162.03833008 1.34790039 C134.9936364 6.22934717 108.73310273 13.97333454 86 30 C84.93136719 30.72445313 83.86273438 31.44890625 82.76171875 32.1953125 C43.17101108 59.37599522 12.84776786 102.13898891 3.46533203 149.7109375 C2.49857259 155.12249085 1.70303496 160.54839559 1 166 C0.67 166 0.34 166 0 166 C0 111.22 0 56.44 0 0 Z " fill="#FCFDFC" transform="translate(0,0)"/>
<path d="M0 0 C0.33 0 0.66 0 1 0 C1 54.45 1 108.9 1 165 C-53.12 165 -107.24 165 -163 165 C-163 164.67 -163 164.34 -163 164 C-162.09628662 163.86537354 -162.09628662 163.86537354 -161.17431641 163.72802734 C-112.27838737 156.27624693 -65.93333998 130.61368353 -36.296875 90.3359375 C-31.91855996 84.06236217 -27.8778103 77.59260284 -24 71 C-23.64164063 70.39462402 -23.28328125 69.78924805 -22.9140625 69.16552734 C-16.57721998 58.31725794 -12.17206321 46.82393276 -8 35 C-7.74057617 34.27635254 -7.48115234 33.55270508 -7.21386719 32.80712891 C-3.40380306 22.04975569 -1.50842142 11.28250167 0 0 Z " fill="#FCFCFC" transform="translate(1253,1089)"/>
<path d="M0 0 C54.45 0 108.9 0 165 0 C165 54.45 165 108.9 165 165 C164.67 165 164.34 165 164 165 C163.86537354 164.15743652 163.86537354 164.15743652 163.72802734 163.29785156 C156.95897046 121.73938277 139.71569104 83.33836667 108.87109375 53.99609375 C107 52 107 52 107 50 C106.45988281 49.773125 105.91976563 49.54625 105.36328125 49.3125 C102.28124883 47.6008258 99.80961881 45.32606669 97.1875 43 C90.21134889 36.97500669 82.83325725 31.84482409 75 27 C74.37254883 26.61070313 73.74509766 26.22140625 73.09863281 25.8203125 C62.26059095 19.19181281 50.90557176 14.37675737 39 10 C38.30455078 9.74202637 37.60910156 9.48405273 36.89257812 9.21826172 C24.88684636 4.81873811 12.74168105 2.11769132 0 1 C0 0.67 0 0.34 0 0 Z " fill="#FCFCFC" transform="translate(1089,0)"/>
<path d="M0 0 C2.38420511 3.57630767 2.2583845 5.14832261 2.2784729 9.39701843 C2.2842653 10.04886653 2.2900577 10.70071463 2.29602563 11.3723157 C2.31305458 13.56035344 2.31590456 15.74818061 2.31884766 17.9362793 C2.32814385 19.50320962 2.33831206 21.07013499 2.34928894 22.63705444 C2.37663785 26.89499491 2.3917528 31.15290221 2.40471697 35.41090751 C2.42032615 39.85924834 2.44712339 44.30752121 2.4727478 48.7558136 C2.51957485 57.1811468 2.55629993 65.60649273 2.58942068 74.03188974 C2.62761436 83.62311259 2.67703171 93.21426726 2.72740483 102.80543268 C2.83078306 122.5369048 2.92002428 142.26842006 3 162 C2.01 162.33 1.02 162.66 0 163 C0 109.21 0 55.42 0 0 Z " fill="#84A781" transform="translate(918,819)"/>
<path d="M0 0 C0.66 0.33 1.32 0.66 2 1 C-0.28356246 3.34138543 -2.57813374 5.67166982 -4.875 8 C-5.52597656 8.66773438 -6.17695312 9.33546875 -6.84765625 10.0234375 C-7.47285156 10.65507813 -8.09804688 11.28671875 -8.7421875 11.9375 C-9.3182373 12.52402344 -9.89428711 13.11054687 -10.48779297 13.71484375 C-12 15 -12 15 -14 15 C-14 15.66 -14 16.32 -14 17 C-14.66 16.67 -15.32 16.34 -16 16 C-4.06349206 2.03174603 -4.06349206 2.03174603 0 0 Z " fill="#4D8046" transform="translate(63,47)"/>
<path d="M0 0 C0.33 0 0.66 0 1 0 C1.41626139 2.60238237 1.80854441 5.20465765 2.1875 7.8125 C2.30802734 8.55048828 2.42855469 9.28847656 2.55273438 10.04882812 C2.85546875 12.20703125 2.85546875 12.20703125 3 16 C2.01 16.99 1.02 17.98 0 19 C0 12.73 0 6.46 0 0 Z " fill="#EEF3EC" transform="translate(0,1088)"/>
<path d="M0 0 C0.33 0 0.66 0 1 0 C1.33 9.24 1.66 18.48 2 28 C1.01 28.33 0.02 28.66 -1 29 C-0.67 19.43 -0.34 9.86 0 0 Z " fill="#789F74" transform="translate(919,953)"/>
<path d="M0 0 C1.1653125 0.26425781 2.330625 0.52851562 3.53125 0.80078125 C6.5 1.6875 6.5 1.6875 8.5 3.6875 C7.51 4.1825 7.51 4.1825 6.5 4.6875 C5.819375 4.378125 5.13875 4.06875 4.4375 3.75 C0.42426282 2.29840357 -3.27700348 2.52189229 -7.5 2.6875 C-7.83 1.6975 -8.16 0.7075 -8.5 -0.3125 C-5.45734512 -1.83382744 -3.25995336 -0.76089619 0 0 Z " fill="#70986A" transform="translate(349.5,809.3125)"/>
<path d="M0 0 C0.99 0.33 1.98 0.66 3 1 C0.03 3.64 -2.94 6.28 -6 9 C-6.99 8.67 -7.98 8.34 -9 8 C-8.43410156 7.50628906 -7.86820313 7.01257813 -7.28515625 6.50390625 C-6.55167969 5.86324219 -5.81820312 5.22257813 -5.0625 4.5625 C-4.33160156 3.92441406 -3.60070312 3.28632812 -2.84765625 2.62890625 C-1.87860647 1.77458541 -0.91348825 0.91348825 0 0 Z " fill="#4B8045" transform="translate(908,1002)"/>
<path d="M0 0 C3.63 1.65 7.26 3.3 11 5 C10.01 5.66 9.02 6.32 8 7 C8 6.34 8 5.68 8 5 C6.329375 4.566875 6.329375 4.566875 4.625 4.125 C1 3 1 3 -1 1 C-0.67 0.67 -0.34 0.34 0 0 Z " fill="#4B7D43" transform="translate(795,986)"/>
<path d="M0 0 C0.2475 0.53625 0.495 1.0725 0.75 1.625 C2.29696975 4.56424252 4.13014369 7.25754408 6 10 C5.01 10.33 4.02 10.66 3 11 C2.30034557 9.73581754 1.61565237 8.46334598 0.9375 7.1875 C0.55464844 6.47980469 0.17179687 5.77210938 -0.22265625 5.04296875 C-1 3 -1 3 0 0 Z " fill="#487F43" transform="translate(364,975)"/>
<path d="M0 0 C0 0.66 0 1.32 0 2 C-1.32 2.33 -2.64 2.66 -4 3 C-4 3.66 -4 4.32 -4 5 C-5.98 5 -7.96 5 -10 5 C-3.63636364 0 -3.63636364 0 0 0 Z " fill="#54854D" transform="translate(500,965)"/>
<path d="M0 0 C2.31 1.98 4.62 3.96 7 6 C6.34 6.66 5.68 7.32 5 8 C3.02 5.69 1.04 3.38 -1 1 C-0.67 0.67 -0.34 0.34 0 0 Z " fill="#4E8245" transform="translate(244,769)"/>
<path d="M0 0 C0.66 0.33 1.32 0.66 2 1 C1.67 1.99 1.34 2.98 1 4 C-1.0625 4.6875 -1.0625 4.6875 -3 5 C-3.66 4.01 -4.32 3.02 -5 2 C-2.625 0.9375 -2.625 0.9375 0 0 Z " fill="#56864F" transform="translate(670,883)"/>
<path d="M0 0 C1.32 0.66 2.64 1.32 4 2 C2.1875 3.5625 2.1875 3.5625 0 5 C-0.99 4.67 -1.98 4.34 -3 4 C-2.67 3.34 -2.34 2.68 -2 2 C-1.34 2 -0.68 2 0 2 C0 1.34 0 0.68 0 0 Z " fill="#55894E" transform="translate(585,884)"/>
</svg>
